<?xml version="1.0" encoding="UTF-8"?>
<!DOCTYPE svg PUBLIC "-//W3C//DTD SVG 1.1//EN" "http://www.w3.org/Graphics/SVG/1.1/DTD/svg11.dtd">
<svg xmlns="http://www.w3.org/2000/svg" version="1.1" width="225px" height="225px" style="shape-rendering:geometricPrecision; text-rendering:geometricPrecision; image-rendering:optimizeQuality; fill-rule:evenodd; clip-rule:evenodd" xmlns:xlink="http://www.w3.org/1999/xlink">
<g><path style="opacity:1" fill="#ced4ca" d="M -0.5,-0.5 C 74.5,-0.5 149.5,-0.5 224.5,-0.5C 224.5,74.5 224.5,149.5 224.5,224.5C 149.5,224.5 74.5,224.5 -0.5,224.5C -0.5,149.5 -0.5,74.5 -0.5,-0.5 Z"/></g>
<g><path style="opacity:1" fill="#221e1f" d="M 52.5,46.5 C 56.1309,46.1604 59.4642,46.9937 62.5,49C 79,62.8333 95.5,76.6667 112,90.5C 129.167,76.6667 146.333,62.8333 163.5,49C 174.877,46.9439 179.043,51.4439 176,62.5C 157.5,77.6667 139,92.8333 120.5,108C 114.833,112.667 109.167,112.667 103.5,108C 85.6256,92.4568 67.4589,77.2901 49,62.5C 44.9272,55.9144 46.0938,50.581 52.5,46.5 Z"/></g>
<g><path style="opacity:1" fill="#221e1f" d="M 51.5,112.5 C 54.9783,112.184 58.3117,112.684 61.5,114C 78.3333,128.167 95.1667,142.333 112,156.5C 129.167,142.667 146.333,128.833 163.5,115C 171.082,112.135 175.749,114.635 177.5,122.5C 177.109,125.781 175.776,128.615 173.5,131C 156.317,144.427 139.317,158.093 122.5,172C 119.37,174.898 115.703,176.732 111.5,177.5C 109.701,177.423 108.034,176.923 106.5,176C 86.7066,159.875 67.2066,143.375 48,126.5C 45.4323,120.909 46.599,116.243 51.5,112.5 Z"/></g>
</svg>
